<svg xmlns="http://www.w3.org/2000/svg" width="221.005" height="48.004" viewBox="0 0 221.005 48.004">
  <g id="Vector_Smart_Object" data-name="Vector Smart Object" transform="translate(-1.42 -1.476)">
    <g id="Group_7" data-name="Group 7">
      <g id="Group_5" data-name="Group 5">
        <g id="Group_4" data-name="Group 4">
          <path id="Path_15" data-name="Path 15" d="M4.262,47.339H10.23l9.011-31.526L16.258,5.373Z" fill="none"/>
          <path id="Path_16" data-name="Path 16" d="M23.953,3.637H17.987L29.976,45.581l2.983-10.439Z" fill="none"/>
          <path id="Path_17" data-name="Path 17" d="M31.7,47.339h5.966l9.006-31.5L43.685,5.4Z" fill="none"/>
          <path id="Path_18" data-name="Path 18" d="M51.944,34.246l1.1-3.942L45.419,3.641h5.952l4.668,16.322,1.109-3.952L53,1.5H42.569l.01.01-8.51,29.74L25.569,1.5H15.143L1.42,49.48H11.846L20.356,19.7l8.51,29.77v.01H39.282v-.01l8.5-29.74ZM10.231,47.334H4.26l12-41.965,2.976,10.448ZM17.983,3.641h5.972l9.006,31.5L29.974,45.577ZM37.667,47.334H31.7L43.687,5.4l2.986,10.438Z" fill="#d90010"/>
          <line id="Line_2" data-name="Line 2" x1="0.008" y2="0.031" transform="translate(53.044 30.269)" fill="#201c1a"/>
          <path id="Path_19" data-name="Path 19" d="M97.441,1.476l-8.51,29.77-8.51-29.77H70l-8.5,29.75L57.148,15.982l-1.109,3.962.117.437,4.221,14.759h0L57.4,45.557,53.034,30.275l-1.089,3.952,4.338,15.225H66.708l8.5-29.75,8.51,29.75H94.144L107.857,1.476ZM65.093,47.315H59.122L71.114,5.369,74.1,15.807Zm7.742-43.7h5.972l9.006,31.527L84.836,45.577Zm19.694,43.7H86.558l12.5-43.7h5.972Z"/>
        </g>
      </g>
      <g id="Group_6" data-name="Group 6">
        <path id="Path_20" data-name="Path 20" d="M126.977,16.264h-.107L121.006,7.5v13.37h-3.268V2.146h3.511l5.7,8.845,5.709-8.845h3.511v18.72H132.9V7.438Z"/>
        <path id="Path_21" data-name="Path 21" d="M157.409,5.117H146.8V9.923h9.4v2.971h-9.4v5h10.747v2.971H143.53V2.146h13.878Z"/>
        <path id="Path_22" data-name="Path 22" d="M171.958,20.866h-3.326V5.195H162.69V2.146H177.9V5.195h-5.942Z"/>
        <path id="Path_23" data-name="Path 23" d="M194.862,20.866l-4.62-6.525H186.1v6.525h-3.268V2.146H191.2a9.327,9.327,0,0,1,2.9.418,6.1,6.1,0,0,1,2.2,1.175A4.979,4.979,0,0,1,197.673,5.6a6.214,6.214,0,0,1,.486,2.476,6.081,6.081,0,0,1-.34,2.1,5.159,5.159,0,0,1-.924,1.631,5.405,5.405,0,0,1-1.4,1.2,7,7,0,0,1-1.809.767l5.057,7.088ZM193.783,5.9a4.6,4.6,0,0,0-2.869-.786H186.1v6.3h4.843a4.325,4.325,0,0,0,2.82-.854A2.847,2.847,0,0,0,194.8,8.253,2.8,2.8,0,0,0,193.783,5.9Z"/>
        <path id="Path_24" data-name="Path 24" d="M221.7,15.225a9.506,9.506,0,0,1-2.042,3.088,9.771,9.771,0,0,1-3.1,2.1,9.94,9.94,0,0,1-3.968.777,10.094,10.094,0,0,1-3.958-.767,9.227,9.227,0,0,1-5.086-5.146,9.968,9.968,0,0,1,0-7.486A9.327,9.327,0,0,1,205.58,4.7a9.72,9.72,0,0,1,3.1-2.1,10.622,10.622,0,0,1,7.926-.019,9.364,9.364,0,0,1,5.1,5.146,10.118,10.118,0,0,1,0,7.5Zm-3.2-6.272a6.754,6.754,0,0,0-1.313-2.126,6.208,6.208,0,0,0-2.023-1.447,6.494,6.494,0,0,0-5.135-.01,5.971,5.971,0,0,0-1.994,1.418,6.446,6.446,0,0,0-1.294,2.107,7.237,7.237,0,0,0,0,5.166,6.623,6.623,0,0,0,1.313,2.126,6.23,6.23,0,0,0,4.59,1.971,6.334,6.334,0,0,0,2.558-.515,6.153,6.153,0,0,0,1.994-1.418,6.684,6.684,0,0,0,1.3-2.117,7.351,7.351,0,0,0,0-5.156Z"/>
        <path id="Path_25" data-name="Path 25" d="M130.138,30.575h2.791l4.6,13.924L142,30.624h3.462L138.93,49.48h-2.84l-4.61-13.448L126.87,49.48h-2.83L117.5,30.624h3.56L125.538,44.5Z"/>
        <path id="Path_26" data-name="Path 26" d="M164.722,49.344h-3.482l-1.9-4.515h-8.87l-1.926,4.515h-3.375L153.421,30.5h3.054ZM154.9,34.42l-3.219,7.486h6.458Z"/>
        <path id="Path_27" data-name="Path 27" d="M169.391,30.624h3.268V46.373h9.852v2.971h-13.12Z"/>
        <path id="Path_28" data-name="Path 28" d="M187.422,30.624h3.268V46.373h9.852v2.971h-13.12Z"/>
      </g>
    </g>
  </g>
</svg>
