<svg xmlns="http://www.w3.org/2000/svg" width="174.994" height="102.006" viewBox="0 0 174.994 102.006">
  <g id="Vector_Smart_Object" data-name="Vector Smart Object" transform="translate(-1.206 -1.557)">
    <g id="Group_3" data-name="Group 3">
      <g id="Group_1" data-name="Group 1">
        <path id="Path_1" data-name="Path 1" d="M7.731,74.8h9.706L32.09,24.454,27.24,7.783Z" fill="none"/>
        <path id="Path_2" data-name="Path 2" d="M39.753,5.01h-9.7l19.5,66.982L54.4,55.321Z" fill="none"/>
        <path id="Path_3" data-name="Path 3" d="M52.351,74.8h9.7L76.7,24.5,71.843,7.825Z" fill="none"/>
        <path id="Path_4" data-name="Path 4" d="M85.279,53.9l1.782-6.306L74.668,5.014h9.683L91.937,31.09l1.8-6.328L87,1.593H70.033v.015l-13.824,47.5L42.378,1.593H25.424L3.115,78.214H20.062L33.9,30.672,47.739,78.207v.007H64.686l-.007-.007L78.51,30.716ZM17.433,74.8H7.728L27.243,7.782l4.845,16.672ZM30.051,5.014h9.7L54.4,55.324,49.544,72Zm32,69.786h-9.7L71.845,7.826,76.7,24.5Z" fill="#fff"/>
        <line id="Line_1" data-name="Line 1" x1="0.013" y2="0.05" transform="translate(87.062 47.541)" fill="#201c1a"/>
        <path id="Path_5" data-name="Path 5" d="M159.259,1.564,145.42,49.106,131.581,1.564H114.642l-13.824,47.5L93.734,24.733l-1.8,6.321.195.69L99,55.317h0v.007L94.153,71.952l-7.1-24.4-1.782,6.306,7.054,24.314H109.3l-.007-.015,13.824-47.491,13.831,47.505H153.9L176.2,1.557Zm-52.6,73.2H96.954l19.5-66.982,4.853,16.672Zm12.6-69.786h9.705l14.648,50.339-4.845,16.672ZM151.28,74.764h-9.705L161.887,4.977h9.705Z" fill="#fff"/>
      </g>
      <g id="Group_2" data-name="Group 2">
        <path id="Path_6" data-name="Path 6" d="M7.511,100.26H7.444L3.437,94.387v8.956H1.206V90.8H3.6l3.9,5.936L11.39,90.8h2.4v12.539H11.555V94.35Z" fill="#fff"/>
        <path id="Path_7" data-name="Path 7" d="M32.028,92.786H24.8v3.23H31.2v1.989H24.79v3.355h7.331v1.982H22.563V90.8h9.466Z" fill="#fff"/>
        <path id="Path_8" data-name="Path 8" d="M45.7,103.343H43.441v-10.5H39.382V90.8H49.769v2.041H45.7Z" fill="#fff"/>
        <path id="Path_9" data-name="Path 9" d="M65.832,103.343l-3.153-4.368H59.856v4.368H57.624V90.8H63.33a6.674,6.674,0,0,1,1.984.272,4.38,4.38,0,0,1,1.5.793,3.378,3.378,0,0,1,.944,1.255,4.048,4.048,0,0,1,.329,1.652,3.928,3.928,0,0,1-.232,1.41,3.532,3.532,0,0,1-.629,1.094,3.884,3.884,0,0,1-.959.808,4.835,4.835,0,0,1-1.236.507l3.452,4.75ZM65.1,93.322a3.182,3.182,0,0,0-1.962-.536h-3.28v4.236h3.3a2.952,2.952,0,0,0,1.925-.58,2.066,2.066,0,0,0,.015-3.12Z" fill="#fff"/>
        <path id="Path_10" data-name="Path 10" d="M88.649,99.562a6.289,6.289,0,0,1-1.385,2.07,6.675,6.675,0,0,1-2.127,1.41,7.319,7.319,0,0,1-5.407.007,6.49,6.49,0,0,1-3.475-8.465,6.289,6.289,0,0,1,1.385-2.07,6.593,6.593,0,0,1,2.127-1.41,7.319,7.319,0,0,1,5.407-.007A6.49,6.49,0,0,1,88.649,99.562Zm-2.187-4.2a4.252,4.252,0,0,0-4.029-2.753,4.252,4.252,0,0,0-1.745.352,4.062,4.062,0,0,0-1.363.947,4.266,4.266,0,0,0-.884,1.417,4.8,4.8,0,0,0,0,3.458,4.317,4.317,0,0,0,.891,1.424,4.106,4.106,0,0,0,1.385.969,4.174,4.174,0,0,0,1.752.36,4.245,4.245,0,0,0,3.108-1.3,4.391,4.391,0,0,0,.884-1.417,4.8,4.8,0,0,0,0-3.458Z" fill="#fff"/>
        <path id="Path_11" data-name="Path 11" d="M104.667,90.768h1.9l3.145,9.338,3.055-9.3h2.359l-4.463,12.634h-1.94l-3.145-9.015-3.138,9.015H100.5L96.04,90.8h2.434l3.048,9.3Z" fill="#fff"/>
        <path id="Path_12" data-name="Path 12" d="M133.521,103.343H131.14l-1.3-3.025h-6.051l-1.318,3.025h-2.3L125.8,90.709h2.082Zm-6.71-10-2.194,5.021h4.4Z" fill="#fff"/>
        <path id="Path_13" data-name="Path 13" d="M141.2,90.8h2.232v10.557h6.725v1.982H141.2Z" fill="#fff"/>
        <path id="Path_14" data-name="Path 14" d="M158,90.8h2.232v10.557h6.725v1.982H158Z" fill="#fff"/>
      </g>
    </g>
  </g>
</svg>
