<svg xmlns="http://www.w3.org/2000/svg" width="216.004" height="48.004" viewBox="0 0 216.004 48.004">
  <g id="Vector_Smart_Object" data-name="Vector Smart Object" transform="translate(-1.388 -1.476)">
    <g id="Group_7" data-name="Group 7">
      <g id="Group_5" data-name="Group 5">
        <g id="Group_4" data-name="Group 4">
          <path id="Path_18" data-name="Path 18" d="M4.166,47.339H10l8.807-31.526L15.89,5.373Z" fill="none"/>
          <path id="Path_19" data-name="Path 19" d="M23.411,3.637H17.58L29.3,45.581l2.915-10.439Z" fill="none"/>
          <path id="Path_20" data-name="Path 20" d="M30.982,47.339h5.831l8.8-31.5L42.7,5.4Z" fill="none"/>
          <path id="Path_21" data-name="Path 21" d="M50.769,34.246,51.843,30.3,44.391,3.641h5.817l4.563,16.322,1.084-3.952L51.805,1.5h-10.2l.01.01L33.3,31.245,24.99,1.5H14.8L1.388,49.48h10.19L19.9,19.7l8.317,29.77v.01h10.18v-.01L46.7,19.73ZM10,47.334H4.163L15.893,5.369,18.8,15.817ZM17.576,3.641h5.836l8.8,31.5L29.3,45.577ZM36.815,47.334H30.979L42.7,5.4l2.918,10.438Z" fill="#d90010"/>
          <line id="Line_2" data-name="Line 2" x1="0.008" y2="0.031" transform="translate(51.844 30.269)" fill="#201c1a"/>
          <path id="Path_22" data-name="Path 22" d="M95.236,1.476l-8.317,29.77L78.6,1.476H68.421l-8.308,29.75L55.855,15.982l-1.084,3.962.114.437,4.125,14.759h0L56.1,45.557,51.834,30.275l-1.065,3.952,4.239,15.225H65.2L73.507,19.7l8.317,29.75h10.19l13.4-47.975ZM63.621,47.315H57.784L69.5,5.369l2.918,10.438Zm7.566-43.7h5.836l8.8,31.527L82.917,45.577Zm19.249,43.7H84.6l12.215-43.7h5.836Z" fill="#fff"/>
        </g>
      </g>
      <g id="Group_6" data-name="Group 6">
        <path id="Path_23" data-name="Path 23" d="M124.1,16.264H124L118.268,7.5v13.37h-3.194V2.146h3.432l5.57,8.845,5.58-8.845h3.432v18.72h-3.194V7.438Z" fill="#fff"/>
        <path id="Path_24" data-name="Path 24" d="M153.848,5.117H143.477V9.923h9.192v2.971h-9.192v5h10.5v2.971h-13.7V2.146h13.564Z" fill="#fff"/>
        <path id="Path_25" data-name="Path 25" d="M168.068,20.866h-3.251V5.195h-5.808V2.146h14.867V5.195h-5.808Z" fill="#fff"/>
        <path id="Path_26" data-name="Path 26" d="M190.453,20.866l-4.515-6.525h-4.049v6.525H178.7V2.146h8.175a8.925,8.925,0,0,1,2.833.418,5.923,5.923,0,0,1,2.148,1.175A4.973,4.973,0,0,1,193.2,5.6a6.339,6.339,0,0,1,.475,2.476,6.209,6.209,0,0,1-.333,2.1,5.192,5.192,0,0,1-.9,1.631,5.319,5.319,0,0,1-1.369,1.2,6.757,6.757,0,0,1-1.768.767l4.943,7.088ZM189.4,5.9a4.425,4.425,0,0,0-2.8-.786h-4.705v6.3h4.734a4.162,4.162,0,0,0,2.757-.854A2.875,2.875,0,0,0,190.4,8.253,2.826,2.826,0,0,0,189.4,5.9Z" fill="#fff"/>
        <path id="Path_27" data-name="Path 27" d="M216.689,15.225a9.449,9.449,0,0,1-8.907,5.962,9.672,9.672,0,0,1-3.869-.767,9.132,9.132,0,0,1-3.013-2.068,9.44,9.44,0,0,1-1.958-3.078,10.182,10.182,0,0,1,0-7.486A9.349,9.349,0,0,1,200.929,4.7a9.444,9.444,0,0,1,6.911-2.874,9.6,9.6,0,0,1,3.869.757,9.3,9.3,0,0,1,3.013,2.078,9.578,9.578,0,0,1,1.968,3.068,10.336,10.336,0,0,1,0,7.5Zm-3.127-6.272a6.781,6.781,0,0,0-1.283-2.126A6.073,6.073,0,0,0,210.3,5.379a6.026,6.026,0,0,0-6.968,1.408,6.473,6.473,0,0,0-1.264,2.107,7.394,7.394,0,0,0,0,5.166,6.649,6.649,0,0,0,1.283,2.126,5.949,5.949,0,0,0,1.977,1.437,5.8,5.8,0,0,0,2.509.534,5.87,5.87,0,0,0,4.449-1.932,6.711,6.711,0,0,0,1.274-2.117,7.511,7.511,0,0,0,0-5.156Z" fill="#fff"/>
        <path id="Path_28" data-name="Path 28" d="M127.194,30.575h2.728l4.5,13.924,4.373-13.875h3.384L135.787,49.48h-2.776l-4.506-13.448L124,49.48h-2.766l-6.388-18.856h3.479L122.7,44.5Z" fill="#fff"/>
        <path id="Path_29" data-name="Path 29" d="M161,49.344h-3.4l-1.854-4.515H147.07l-1.882,4.515h-3.3L149.95,30.5h2.985ZM151.4,34.42l-3.146,7.486h6.312Z" fill="#fff"/>
        <path id="Path_30" data-name="Path 30" d="M165.558,30.624h3.194V46.373h9.629v2.971H165.558Z" fill="#fff"/>
        <path id="Path_31" data-name="Path 31" d="M183.182,30.624h3.194V46.373H196v2.971H183.182Z" fill="#fff"/>
      </g>
    </g>
  </g>
</svg>
